<svg aria-hidden="true" style="position:absolute;width:0;height:0;overflow:hidden" xmlns="http://www.w3.org/2000/svg">
  <defs>
    <!-- HEADER -->
    <symbol id="icon-menu" viewBox="0 0 32 32">
      <path
        d="M1.067 4.267h29.867a1.067 1.067 0 0 1 0 2.134H1.067a1.067 1.067 0 0 1 0-2.134zM1.067 14.933h29.867a1.067 1.067 0 0 1 0 2.134H1.067a1.067 1.067 0 0 1 0-2.134zM1.067 25.6h29.867a1.067 1.067 0 0 1 0 2.134H1.067a1.067 1.067 0 0 1 0-2.134z" />
    </symbol>
    <symbol id="icon-close" viewBox="0 0 32 32">
      <path
        d="M1.394 29.076c-.556.565-.556 1.481 0 2.047s1.457.565 2.013 0l12.37-12.579 12.817 13.033c.556.565 1.457.565 2.013 0s.556-1.481 0-2.047L17.79 16.497 31.584 2.471c.556-.565.556-1.481 0-2.047s-1.457-.565-2.013 0L15.777 14.45 2.43.878C1.874.313.973.313.417.878s-.556 1.481 0 2.047l13.347 13.572-12.37 12.579z" />
    </symbol>

    <!-- SLIDER -->
    <symbol id="icon-polygon-left" viewBox="0 0 32 32">
      <path d="M2 16 29 .412v31.177L2 16.001z" />
    </symbol>
    <symbol id="icon-polygon-right" viewBox="0 0 32 32">
      <path d="M30 16 3 31.588V.411l27 15.588z" />
    </symbol>

    <!-- SECTION ABOUT -->
    <symbol id="icon-manufacturing" viewBox="0 0 32 32">
      <path fill="#bb1219" style="fill:var(--color1, #bb1219)"
        d="M31.063 1.875a.937.937 0 1 0 0-1.876H16a.937.937 0 1 0 0 1.876h4.688v5.688h-.938a.937.937 0 0 0-.663.275l-3.75 3.75a.937.937 0 0 0-.275.663v3.75c0 .249.099.487.275.663l2.538 2.538v-2.651l-.938-.938v-2.974l3.201-3.201h6.786l3.201 3.201v2.974l-.938.938v2.651l2.538-2.538a.937.937 0 0 0 .275-.663v-3.75a.937.937 0 0 0-.275-.663l-3.75-3.75a.937.937 0 0 0-.663-.275h-.938V1.875h4.688zM28.188 24.5H3.813C1.742 24.5 0 26.179 0 28.25S1.741 32 3.813 32h24.375C30.259 32 32 30.321 32 28.25s-1.741-3.75-3.812-3.75zM4.75 29.187a.938.938 0 1 1 0-1.876.938.938 0 0 1 0 1.876zm3.75 0a.938.938 0 1 1 0-1.876.938.938 0 0 1 0 1.876zm3.75 0a.938.938 0 1 1 0-1.876.938.938 0 0 1 0 1.876zm3.75 0a.938.938 0 1 1 0-1.876.938.938 0 0 1 0 1.876zm3.75 0a.938.938 0 1 1 0-1.876.938.938 0 0 1 0 1.876zm3.75 0a.938.938 0 1 1 0-1.876.938.938 0 0 1 0 1.876zm3.75 0a.938.938 0 1 1 0-1.876.938.938 0 0 1 0 1.876zM11.312 15.063H5.687a.937.937 0 0 0-.938.938v6.625h7.5v-6.625a.937.937 0 0 0-.938-.938z" />
      <path fill="#bb1219" style="fill:var(--color1, #bb1219)"
        d="M26.375 15.063h-5.687a.937.937 0 0 0-.938.938v6.625h7.563v-6.625a.937.937 0 0 0-.938-.938z" />
    </symbol>
    <symbol id="icon-warranty" viewBox="0 0 32 32">
      <path fill="#bb1219" style="fill:var(--color1, #bb1219)"
        d="M22.293 25.429a1.716 1.716 0 0 1-1.379-.674c-.11.013-.221.015-.331.006v6.382l1.371-1.028a.57.57 0 0 1 .686 0l1.371 1.028v-6.382a1.788 1.788 0 0 1-.343-.006 1.712 1.712 0 0 1-1.375.674zM0 26.571c0 .947.768 1.714 1.714 1.714h17.728v-2.286H0v.571zM24.749 20.869a.57.57 0 0 1-.324-.784.595.595 0 0 0-.789-.794.573.573 0 0 1-.784-.324.59.59 0 0 0-1.116 0 .569.569 0 0 1-.785.324.594.594 0 0 0-.788.794.573.573 0 0 1-.324.784.594.594 0 0 0 0 1.12.57.57 0 0 1 .324.784.593.593 0 0 0 .789.794c.146-.07.315-.074.465-.013s.266.184.32.337a.59.59 0 0 0 1.116 0 .569.569 0 0 1 .784-.324.594.594 0 0 0 .789-.794.569.569 0 0 1 .324-.784.596.596 0 0 0 0-1.12z" />
      <path fill="#bb1219" style="fill:var(--color1, #bb1219)"
        d="M4.571 2.571v22.286h14.871v-.635a1.718 1.718 0 0 1-.471-1.417 1.745 1.745 0 0 1 0-2.754 1.74 1.74 0 0 1 1.943-1.948 1.743 1.743 0 0 1 2.752 0 1.742 1.742 0 0 1 1.943 1.949 1.745 1.745 0 0 1 0 2.754 1.715 1.715 0 0 1-.457 1.4v3.975c.18.067.37.102.562.105.947 0 1.714-.768 1.714-1.714v-24c.001-.178.019-.355.054-.53.01-.054.027-.105.04-.159a2.445 2.445 0 0 1 .178-.509c.049-.104.104-.205.165-.303.03-.048.057-.097.091-.142.016-.023.028-.049.045-.071H6.286c-.947 0-1.714.768-1.714 1.714zm20 12h-9.714v-1.143h9.714v1.143zm0-2.857H11.428v-1.143h13.143v1.143zm-6.857-7.428H20v1.143h-2.286V4.286zm-5.714 0h4.571v1.143H12V4.286zm-1.714 2.857h11.429v1.143H10.286V7.143zm-2.858 3.428h2.857v1.143H7.428v-1.143zm0 2.858h6.286v1.143H7.428v-1.143zm0 2.857h11.429v1.143H7.428v-1.143zm0 2.857h9.714v1.143H7.428v-1.143zM30.286.857c-.947 0-1.714.768-1.714 1.714v.571h3.429v-.571c0-.947-.768-1.714-1.714-1.714z" />
    </symbol>
    <symbol id="icon-support" viewBox="0 0 32 32">
      <path fill="#bb1219" style="fill:var(--color1, #bb1219)"
        d="M2.813 13.125H11.8l3.475 3.475a.938.938 0 0 0 1.601-.662v-2.812h2.188a2.815 2.815 0 0 0 2.812-2.813v-7.5A2.816 2.816 0 0 0 19.064 0H2.814A2.816 2.816 0 0 0 .001 2.813v7.5a2.816 2.816 0 0 0 2.813 2.813zM4.688 3.75h12.5a.938.938 0 0 1 0 1.876h-12.5a.938.938 0 0 1 0-1.876zm0 3.75h12.5a.938.938 0 0 1 0 1.876h-12.5a.938.938 0 0 1 0-1.876zM12.812 21.25H11.78a4.666 4.666 0 0 0-.684-1.646l.732-.731a.938.938 0 0 0-1.326-1.326l-.732.731a4.648 4.648 0 0 0-1.646-.684v-1.032a.938.938 0 0 0-1.876 0v1.032a4.666 4.666 0 0 0-1.646.684l-.732-.732a.938.938 0 0 0-1.326 1.326l.732.731a4.648 4.648 0 0 0-.684 1.646H1.56a.938.938 0 0 0 0 1.876h1.032c.122.598.358 1.154.684 1.646l-.732.731a.938.938 0 0 0 1.326 1.326l.732-.731a4.648 4.648 0 0 0 1.646.684v1.032a.938.938 0 0 0 1.876 0v-1.032a4.666 4.666 0 0 0 1.646-.684l.731.732a.935.935 0 0 0 1.326 0 .938.938 0 0 0 0-1.326l-.731-.731a4.648 4.648 0 0 0 .684-1.646h1.032a.938.938 0 0 0 0-1.876zm-5.624 1.875a.938.938 0 1 1 .937-.938c0 .518-.42.938-.938.938zM31.531 24.877l-.769-.444a6.926 6.926 0 0 0 0-1.74l.769-.444a.938.938 0 0 0 .343-1.281l-1.875-3.248a.938.938 0 0 0-1.281-.343l-.772.446a7.11 7.11 0 0 0-1.504-.875v-.885a.938.938 0 0 0-.938-.938h-3.75a.938.938 0 0 0-.938.938v.885a7.11 7.11 0 0 0-1.504.875l-.772-.446a.938.938 0 0 0-1.281.343l-1.875 3.248a.938.938 0 0 0 .343 1.281l.769.444a6.914 6.914 0 0 0 0 1.74l-.769.444a.938.938 0 0 0-.343 1.281l1.875 3.248a.938.938 0 0 0 1.281.343l.772-.446a7.11 7.11 0 0 0 1.504.875v.885c0 .518.42.938.938.938h3.75c.518 0 .938-.42.938-.938v-.885a7.11 7.11 0 0 0 1.504-.875l.772.446a.938.938 0 0 0 1.281-.343l1.875-3.248a.938.938 0 0 0-.343-1.281zm-7.901 1.498c-1.551 0-2.813-1.262-2.813-2.812s1.262-2.813 2.813-2.813c1.551 0 2.812 1.262 2.812 2.813s-1.262 2.812-2.812 2.812z" />
    </symbol>
    <symbol id="icon-worldwild" viewBox="0 0 32 32">
      <path fill="#bb1219" style="fill:var(--color1, #bb1219)"
        d="M3.621 20.287C1.624 20.287 0 21.922 0 23.931c0 .636.166 1.263.481 1.813.015.026.028.052.041.079l2.596 4.645a.417.417 0 0 0 .72.016l2.787-4.516.106-.171.016-.026.011-.02a3.657 3.657 0 0 0 .484-1.819c0-2.009-1.624-3.644-3.621-3.644zm0 5.111c-.805 0-1.458-.657-1.458-1.467s.653-1.467 1.458-1.467c.805 0 1.458.657 1.458 1.467s-.653 1.467-1.458 1.467z" />
      <path fill="#bb1219" style="fill:var(--color1, #bb1219)"
        d="M28.176 13.971h-.023a1.06 1.06 0 0 1-.903-.545l-3.862-6.911c-.013-.022-.024-.045-.035-.068a5.817 5.817 0 0 1-.554-4.177 23.036 23.036 0 0 0-2.65-.844 8.208 8.208 0 0 1-1.331 4.828c-.947 1.46-2.336 2.646-4.018 3.429-.325.152-.655.282-.973.408-.757.3-1.472.584-1.917 1.069-.248.271-.448.646-.66 1.044-.219.411-.467.876-.811 1.299-.731.899-1.856 1.541-3.168 1.807-1.31.266-2.43.282-3.425.049-1.235-.29-1.631-.108-1.979.051a2.751 2.751 0 0 1-.551.203c-.026.006-.157.03-.326.06-.012.256-.019.513-.019.772 0 .619.077 1.49.175 2.27a5.681 5.681 0 0 1 2.476-.565c3.169 0 5.746 2.594 5.746 5.783a5.808 5.808 0 0 1-.778 2.906l-.016.026-.046.075a48.47 48.47 0 0 1-.1.16l-1.153 1.869c.598.432 1.099.756 1.764 1.109l.558-.412c1.124-.828 2.427-2.425 2.689-3.725.279-1.383.206-2.826.129-4.355l-.017-.338c-.059-1.208-.082-2.388.286-3.54.473-1.483 1.572-2.597 2.867-2.908 1.337-.321 2.541.203 3.604.664.213.092.413.18.611.259 2.359.942 5.065.823 7.416.636l.388-.031c1.402-.114 2.851-.231 4.315 0-.02-1.782-.49-3.875-1.107-5.613l-1.7 2.754a1.062 1.062 0 0 1-.902.505z" />
      <path fill="#bb1219" style="fill:var(--color1, #bb1219)"
        d="M4.328 13.275c.692.162 1.517.142 2.523-.062.832-.169 1.522-.547 1.944-1.065.213-.262.393-.599.583-.955.253-.475.54-1.013.971-1.483.775-.846 1.798-1.251 2.7-1.609.303-.12.59-.234.86-.36 2.744-1.277 4.311-3.753 4.105-6.464a3.47 3.47 0 0 1-.011-.276 11.857 11.857 0 0 0-1.572-.115c-7.48 0-13.719 5.347-15.15 12.45.643-.253 1.505-.424 3.049-.062zM31.504 5.484l.012-.021A3.657 3.657 0 0 0 32 3.644C32 1.635 30.376 0 28.379 0s-3.621 1.635-3.621 3.644c0 .636.166 1.263.481 1.813.015.026.028.052.041.079l2.596 4.645a.417.417 0 0 0 .72.016l2.787-4.516.106-.171.016-.026zm-3.125-.374c-.805 0-1.458-.657-1.458-1.467s.653-1.467 1.458-1.467c.805 0 1.458.657 1.458 1.467s-.653 1.467-1.458 1.467zM31.669 18.455c-1.249-.216-2.55-.111-3.927.002l-.392.032c-2.589.205-5.584.331-8.367-.78a23.204 23.204 0 0 1-.669-.283c-.832-.362-1.618-.704-2.268-.548-.569.137-1.094.718-1.337 1.482-.259.811-.238 1.739-.187 2.781l.017.335c.08 1.593.163 3.241-.169 4.888-.337 1.671-1.607 3.584-3.079 4.721 1.625.585 3.365.916 5.138.916 7.856 0 14.343-5.898 15.328-13.534-.029-.003-.059-.006-.088-.011z" />
    </symbol>
    <symbol id="icon-projects" viewBox="0 0 32 32">
      <path fill="#bb1219" style="fill:var(--color1, #bb1219)"
        d="M5.626 28.25v3.655a4.7 4.7 0 0 0 3.655-3.655H5.626zM16.937 28.25v3.655a4.7 4.7 0 0 0 3.655-3.655h-3.655z" />
      <path fill="#bb1219" style="fill:var(--color1, #bb1219)"
        d="M31.062 20.75H28.25V16a.937.937 0 0 0-.938-.938H16.937v-2.875h4.688a.937.937 0 0 0 .938-.938V9.374H9.438v1.875c0 .518.419.938.938.938h4.687v2.875H4.689a.937.937 0 0 0-.938.938v4.75H.938a.937.937 0 0 0-.938.938v9.375c0 .518.419.938.938.938h2.813v-4.688c0-.518.419-.938.938-.938h4.688v-4.687a.937.937 0 0 0-.938-.938H5.627v-3.812h9.436v3.812h-2.812a.937.937 0 0 0-.938.938v9.375c0 .518.419.938.938.938h2.812v-4.688c0-.518.419-.938.938-.938h4.688v-4.687a.937.937 0 0 0-.938-.938h-2.813v-3.812h9.438v3.812h-2.813a.937.937 0 0 0-.938.938v9.375c0 .518.419.938.938.938h2.813v-4.688c0-.518.419-.938.938-.938h4.687v-4.687a.937.937 0 0 0-.938-.938z" />
      <path fill="#bb1219" style="fill:var(--color1, #bb1219)"
        d="M31.904 28.25h-3.655v3.655a4.7 4.7 0 0 0 3.655-3.655zM9.437 4.688h13.125v2.813H9.437V4.688zM22.562.938A.937.937 0 0 0 21.624 0h-11.25a.937.937 0 0 0-.938.938v1.875h13.125V.938z" />
    </symbol>
    <symbol id="icon-check" viewBox="0 0 32 32">
      <path fill="#bb1219" style="fill:var(--color1, #bb1219)"
        d="m8.676 24.28-2.706-.393-1.21-2.452h-.645l-1.21 2.452-2.706.393-.199.613 1.958 1.909-.462 2.695.522.379 2.42-1.272 2.42 1.272.522-.379-.462-2.695 1.958-1.909-.199-.613zM32 24.893l-.199-.613-2.706-.393-1.21-2.452h-.645l-1.21 2.452-2.706.393-.199.613 1.958 1.909-.462 2.695.522.379 2.42-1.272 2.42 1.272.522-.379-.462-2.695 1.958-1.909zM20.238 24.28l-2.706-.393-1.21-2.452h-.645l-1.21 2.452-2.706.393-.199.613 1.958 1.909-.462 2.695.522.379L16 28.604l2.42 1.272.522-.379-.462-2.695 1.958-1.909-.199-.613zM16 2.124c-4.67 0-8.469 3.799-8.469 8.469S11.33 19.062 16 19.062s8.469-3.799 8.469-8.469S20.67 2.124 16 2.124zM15.276 13.6l-3.348-3.348 1.326-1.326 2.023 2.023 3.472-3.472 1.326 1.326-4.797 4.797z" />
    </symbol>

    <!-- MOBILE MENU -->
    <symbol id="icon-email" viewBox="0 0 32 32">
      <path fill="#bb1219" style="fill:var(--color1, #bb1219)" d="M22.207 10.505H9.793L16 15.825l6.207-5.32z" />
      <path fill="#bb1219" style="fill:var(--color1, #bb1219)"
        d="M16 17.099a.549.549 0 0 1-.358-.133L8.857 11.15v10.344h14.286V11.15l-6.785 5.816a.547.547 0 0 1-.358.133z" />
      <path fill="#bb1219" style="fill:var(--color1, #bb1219)"
        d="M16 .615C7.503.615.615 7.503.615 16S7.503 31.385 16 31.385 31.385 24.497 31.385 16C31.375 7.507 24.493.625 16 .615zm8.242 21.429a.55.55 0 0 1-.549.549H8.308a.55.55 0 0 1-.549-.549V9.956a.55.55 0 0 1 .549-.549h15.385a.55.55 0 0 1 .549.549v12.088z" />
    </symbol>
    <symbol id="icon-phone-call" viewBox="0 0 32 32">
      <path fill="#bb1219" style="fill:var(--color1, #bb1219)"
        d="m18.876 18.433-1.223 2.343a.57.57 0 0 1-.709.27 10.3 10.3 0 0 1-5.988-5.99.572.572 0 0 1 .27-.709l2.343-1.223-.739-4.186a2.856 2.856 0 0 0-4.259 2.491c.008 6.624 5.376 11.992 12 12a2.856 2.856 0 0 0 2.491-4.257l-4.186-.739z" />
      <path fill="#bb1219" style="fill:var(--color1, #bb1219)"
        d="M16 0C7.164 0 0 7.163 0 16s7.163 16 16 16c8.836 0 16-7.164 16-16C31.99 7.168 24.832.01 16 0zm4.571 24.571c-7.255-.008-13.135-5.887-13.143-13.143a4 4 0 0 1 6.239-3.314.572.572 0 0 1 .243.374l.857 4.85a.571.571 0 0 1-.298.606l-2.251 1.176a9.159 9.159 0 0 0 4.665 4.667l1.175-2.254a.571.571 0 0 1 .606-.298l4.85.857a.573.573 0 0 1 .374.242 4 4 0 0 1-3.315 6.238z" />
    </symbol>

    <!-- REVIEWS -->
    <symbol id="icon-play" viewBox="0 0 32 32">
      <path fill="#bb1219" style="fill:var(--color1, #bb1219)"
        d="M32 16c0 8.837-7.163 16-16 16S0 24.837 0 16 7.163 0 16 0s16 7.163 16 16z" />
      <path fill="#fff7f7" style="fill:var(--color2, #fff7f7)" d="m20.8 16.2-7.5 4.33v-8.66l7.5 4.33z" />
    </symbol>

    <!-- FOOTER -->
    <symbol id="icon-polygon-top" viewBox="0 0 32 32">
      <path d="m16 2 15.588 27H.411L15.999 2z" />
    </symbol>
  </defs>
</svg>